<svg height="512pt" viewBox="0 0 512 512" width="512pt" xmlns="http://www.w3.org/2000/svg" xmlns:xlink="http://www.w3.org/1999/xlink"><linearGradient id="a" gradientUnits="userSpaceOnUse" x1="0" x2="512" y1="256" y2="256"><stop offset="0" stop-color="#87f1fc"/><stop offset=".2557" stop-color="#7fd4fb"/><stop offset=".5295" stop-color="#78bcfb"/><stop offset=".7844" stop-color="#74aefa"/><stop offset="1" stop-color="#73a9fa"/></linearGradient><path d="m440 144h-368c-39.699219 0-72-32.300781-72-72s32.300781-72 72-72h368c39.699219 0 72 32.300781 72 72 0 11.046875-8.953125 20-20 20s-20-8.953125-20-20c0-17.644531-14.355469-32-32-32h-368c-17.644531 0-32 14.355469-32 32s14.355469 32 32 32h368c11.046875 0 20 8.953125 20 20s-8.953125 20-20 20zm20 348c0-11.046875-8.953125-20-20-20h-368c-17.644531 0-32-14.355469-32-32s14.355469-32 32-32h368c17.644531 0 32 14.355469 32 32 0 11.046875 8.953125 20 20 20s20-8.953125 20-20c0-39.699219-32.300781-72-72-72h-368c-39.699219 0-72 32.300781-72 72s32.300781 72 72 72h368c11.046875 0 20-8.953125 20-20zm0-184c0-11.046875-8.953125-20-20-20h-368c-17.644531 0-32-14.355469-32-32s14.355469-32 32-32h368c17.644531 0 32 14.355469 32 32 0 11.046875 8.953125 20 20 20s20-8.953125 20-20c0-39.699219-32.300781-72-72-72h-368c-39.699219 0-72 32.300781-72 72s32.300781 72 72 72h368c11.046875 0 20-8.953125 20-20zm0 0" fill="url(#a)"/></svg>