<svg height="511pt" viewBox="0 0 511 511.99919" width="511pt" xmlns="http://www.w3.org/2000/svg" xmlns:xlink="http://www.w3.org/1999/xlink"><linearGradient id="a"><stop offset="0" stop-color="#662d91"/><stop offset=".437" stop-color="#3873b3"/><stop offset="1" stop-color="#00c9dd"/></linearGradient><linearGradient id="b" gradientTransform="matrix(1.077106 0 0 -1.077106 .468937 519.164696)" gradientUnits="userSpaceOnUse" x1="23.8893" x2="445.5999" xlink:href="#a" y1="458.1407" y2="36.4302"/><linearGradient id="c" gradientTransform="matrix(1.077106 0 0 -1.077106 .468937 519.164696)" gradientUnits="userSpaceOnUse" x1="-164.8966" x2="256.8139" xlink:href="#a" y1="269.3548" y2="-152.3479"/><linearGradient id="d" gradientTransform="matrix(1.077106 0 0 -1.077106 .468937 519.164696)" gradientUnits="userSpaceOnUse" x1="212.6878" x2="634.3904" xlink:href="#a" y1="646.9392" y2="225.2287"/><linearGradient id="e" gradientTransform="matrix(1.077106 0 0 -1.077106 .468937 519.164696)" gradientUnits="userSpaceOnUse" x1="25.7306" x2="447.4332" xlink:href="#a" y1="459.982" y2="38.2715"/><linearGradient id="f" gradientTransform="matrix(1.077106 0 0 -1.077106 .468937 519.164696)" gradientUnits="userSpaceOnUse" x1="23.8877" x2="445.5982" xlink:href="#a" y1="458.1391" y2="36.4286"/><path d="m486.695312 255.945312c0-127.160156-103.085937-230.246093-230.246093-230.246093-127.164063 0-230.25 103.085937-230.25 230.246093 0 127.164063 103.085937 230.25 230.25 230.25 127.101562-.144531 230.105469-103.144531 230.246093-230.25zm-59.550781 117.417969c-15.144531-8.957031-31.140625-16.382812-47.753906-22.171875 6.050781-28.523437 9.339844-57.5625 9.824219-86.71875h75.09375c1.871094-.042968 3.675781-.71875 5.117187-1.910156-1.242187 41.53125-14.660156 81.78125-38.59375 115.746094-.5625-2.050782-1.878906-3.820313-3.6875-4.945313zm-108.878906 86.605469c-17.308594 5.242188-35.21875 8.253906-53.289063 8.957031v-121.09375c32.035157.570313 63.847657 5.480469 94.570313 14.589844-8.402344 34.25-22.238281 66.933594-40.984375 96.804687-.113281.242188-.210938.492188-.296875.742188zm-123.933594-.773438c-18.746093-29.871093-32.582031-62.554687-40.984375-96.804687 30.71875-9.113281 62.535156-14.023437 94.574219-14.59375v121.09375c-18.074219-.703125-35.980469-3.710937-53.292969-8.953125-.085937-.253906-.183594-.5-.296875-.742188zm-112.308593-80.886718c-23.570313-33.429688-36.960938-72.964844-38.554688-113.835938h80.210938c.492187 29.152344 3.796874 58.191406 9.855468 86.710938-16.613281 5.789062-32.609375 13.214844-47.753906 22.171875-1.835938 1.113281-3.179688 2.886719-3.757812 4.953125zm3.726562-239.78125c15.144531 8.957031 31.140625 16.382812 47.753906 22.171875-6.054687 28.527343-9.34375 57.566406-9.824218 86.71875h-80.210938c1.597656-40.871094 14.984375-80.40625 38.554688-113.835938.570312 2.0625 1.902343 3.828125 3.726562 4.945313zm108.878906-86.605469c17.308594-5.242187 35.21875-8.25 53.292969-8.953125v121.089844c-32.039063-.570313-63.851563-5.480469-94.574219-14.589844 8.40625-34.238281 22.242188-66.910156 40.984375-96.773438.113281-.25.214844-.507812.296875-.773437zm123.933594.773437c18.746094 29.875 32.582031 62.558594 40.984375 96.808594-30.71875 9.109375-62.535156 14.019532-94.570313 14.589844v-121.125c18.070313.703125 35.976563 3.710938 53.289063 8.953125.085937.265625.183594.523437.296875.773437zm112.308594 80.886719c23.933594 33.964844 37.355468 74.214844 38.597656 115.746094-1.441406-1.191406-3.246094-1.863281-5.117188-1.910156h-75.136718c-.496094-29.148438-3.796875-58.183594-9.859375-86.699219 16.617187-5.789062 32.613281-13.21875 47.757812-22.171875 1.839844-1.117187 3.183594-2.890625 3.757813-4.964844zm-58.449219 113.835938h-107.445313v-66.515625c33.277344-.570313 66.328126-5.570313 98.289063-14.863282 5.605469 26.777344 8.671875 54.023438 9.15625 81.378907zm-124.5-66.515625v66.515625h-107.449219c.484375-27.355469 3.546875-54.605469 9.148438-81.386719 31.960937 9.296875 65.015625 14.296875 98.300781 14.871094zm-107.449219 83.570312h107.449219v66.515625c-33.28125.574219-66.332031 5.570313-98.292969 14.863281-5.601562-26.777343-8.667968-54.023437-9.15625-81.378906zm124.503906 66.515625v-66.515625h107.445313c-.484375 27.363282-3.546875 54.613282-9.148437 81.398438-31.960938-9.300782-65.015626-14.304688-98.296876-14.882813zm157.828126-208.160156c-1.5625-.070313-3.117188.304687-4.476563 1.082031-13.570313 8.039063-27.875 14.773438-42.714844 20.117188-7.292969-28.808594-18.152343-56.597656-32.328125-82.71875 31.011719 13.914062 58.269532 35.007812 79.519532 61.539062zm-253.195313-61.511719c-14.175781 26.121094-25.035156 53.910156-32.328125 82.71875-14.839844-5.34375-29.144531-12.078125-42.714844-20.117187-1.359375-.777344-2.910156-1.152344-4.476562-1.082031 21.253906-26.523438 48.507812-47.609376 79.519531-61.519532zm-79.527344 327.722656c1.566407.074219 3.121094-.300781 4.484375-1.078124 13.570313-8.035157 27.875-14.773438 42.714844-20.117188 7.292969 28.8125 18.152344 56.597656 32.328125 82.71875-31.011719-13.910156-58.273437-35-79.527344-61.523438zm253.203125 61.535157c14.175782-26.121094 25.035156-53.910157 32.328125-82.71875 14.839844 5.34375 29.144531 12.078125 42.714844 20.117187 1.316406.796875 2.824219 1.21875 4.367187 1.226563-21.238281 26.457031-48.453124 47.492187-79.410156 61.375zm0 0" fill="url(#b)"/><path d="m121.898438 482.78125c-43.195313 15.992188-75.898438 15.929688-92.039063-.230469-17.910156-17.90625-16.203125-55.128906 4.851563-104.839843 1.804687-4.347657-.261719-9.335938-4.613282-11.140626-4.304687-1.789062-9.25.21875-11.097656 4.5-24.25 57.355469-24.667969 100.074219-1.199219 123.539063 13.011719 12.003906 30.34375 18.199219 48.019531 17.167969 21.269532-.710938 42.253907-5.128906 62.003907-13.054688 4.414062-1.648437 6.65625-6.566406 5.007812-10.980468-1.648437-4.414063-6.5625-6.660157-10.976562-5.007813zm0 0" fill="url(#c)"/><path d="m385.070312 13.136719c-4.414062 1.648437-6.65625 6.5625-5.007812 10.980469 1.648438 4.414062 6.5625 6.65625 10.976562 5.007812 43.195313-15.988281 75.898438-15.917969 92.042969.230469 17.90625 17.910156 16.199219 55.132812-4.855469 104.839843-1.804687 4.351563.261719 9.339844 4.613282 11.144532 4.304687 1.785156 9.25-.21875 11.09375-4.5 24.253906-57.359375 24.671875-100.074219 1.203125-123.542969-21.472657-21.445313-59.523438-22.878906-110.066407-4.160156zm0 0" fill="url(#d)"/><path d="m134.699219 34.226562c4.339843 1.828126 9.34375-.207031 11.175781-4.550781 1.828125-4.339843-.207031-9.34375-4.550781-11.175781-57.339844-24.257812-100.054688-24.660156-123.523438-1.199219-21.449219 21.4375-22.878906 59.476563-4.160156 110.023438 1.238281 3.34375 4.429687 5.5625 7.996094 5.558593 1.011719.003907 2.011719-.175781 2.960937-.527343 4.414063-1.636719 6.664063-6.542969 5.03125-10.960938-16.007812-43.207031-15.921875-75.894531.230469-92.039062 17.898437-17.898438 55.121094-16.167969 104.839844 4.871093zm0 0" fill="url(#e)"/><path d="m482.710938 366.523438c-4.335938 1.832031-6.375 6.832031-4.542969 11.171874 21.027343 49.707032 22.75 86.984376 4.851562 104.839844-17.898437 17.859375-55.113281 16.203125-104.839843-4.851562-4.347657-1.804688-9.339844.261718-11.144532 4.609375-1.785156 4.308593.21875 9.25 4.503906 11.097656 23.726563 11.039063 49.382813 17.328125 75.527344 18.503906 17.691406 1 35.027344-5.246093 48.011719-17.300781 23.46875-23.46875 23.023437-66.183594-1.203125-123.542969-1.835938-4.328125-6.828125-6.351562-11.164062-4.527343zm0 0" fill="url(#f)"/></svg>